<?xml version="1.0" standalone="no"?><!DOCTYPE svg PUBLIC "-//W3C//DTD SVG 1.1//EN" "http://www.w3.org/Graphics/SVG/1.1/DTD/svg11.dtd"><svg t="1774669954897" class="icon" viewBox="0 0 1024 1024" version="1.1" xmlns="http://www.w3.org/2000/svg" p-id="6842" xmlns:xlink="http://www.w3.org/1999/xlink" width="128" height="128"><path d="M832 601.6v42.24s-1.28 3.84-1.92 6.4c-4.48 22.4-6.4 44.8-13.44 66.56-19.2 63.36-55.04 116.48-105.6 159.36-39.04 33.28-82.56 57.6-132.48 69.12-16.64 3.84-33.28 6.4-49.92 8.96h-41.6s-3.84-1.28-6.4-1.92c-44.16-2.56-86.4-14.08-125.44-34.56-74.24-37.76-128-94.08-152.32-175.36-5.12-17.28-7.68-35.2-10.88-53.12v-40.32c1.28-9.6 3.2-19.84 4.48-29.44 7.68-42.88 26.88-80.64 52.48-115.84 23.68-33.28 49.28-65.28 71.68-98.56 24.32-36.48 36.48-77.44 29.44-122.24l-3.84-26.24c0.64 0 1.92 0 2.56-0.64 54.4 56.96 63.36 127.36 55.68 202.88l5.12-5.12c46.08-62.72 65.92-131.84 51.2-209.28-9.6-49.28-30.08-93.44-64.64-130.56-14.72-16-32.64-28.8-49.28-43.52h17.28s2.56 1.28 4.48 1.92c30.08 2.56 58.24 12.16 85.76 24.96 61.44 30.08 112 74.24 153.6 128 61.44 79.36 101.76 167.04 109.44 268.8 3.2 38.4-0.64 76.16-11.52 113.28-3.84 14.08-9.6 27.52-14.72 42.24 19.84-8.32 35.2-21.76 46.72-38.4 35.2-50.56 44.8-106.24 37.12-168.32 2.56 3.2 3.84 4.48 4.48 5.76 21.12 33.28 37.12 68.48 44.8 107.52 3.2 15.36 5.12 30.72 7.68 46.08M502.4 528.64l-2.56 1.92c-1.28 15.36-1.92 30.72-3.2 46.08-1.92 23.04-7.68 46.08-18.56 66.56-13.44 25.6-35.84 41.6-60.16 54.4-26.88 14.08-43.52 33.28-45.44 64.64-2.56 32 7.04 58.88 33.28 78.08 24.32 18.56 52.48 24.32 81.92 23.04 47.36-1.28 83.2-24.32 97.28-71.68 10.24-33.92 8.32-68.48 1.92-103.04-9.6-47.36-26.24-91.52-55.68-129.92-8.32-10.88-18.56-19.84-28.16-30.08" fill="#10dcd4" p-id="6843"></path></svg>