<?xml version="1.0" standalone="no"?><!DOCTYPE svg PUBLIC "-//W3C//DTD SVG 1.1//EN" "http://www.w3.org/Graphics/SVG/1.1/DTD/svg11.dtd"><svg t="1775057745150" class="icon" viewBox="0 0 1024 1024" version="1.1" xmlns="http://www.w3.org/2000/svg" p-id="7088" width="128" height="128" xmlns:xlink="http://www.w3.org/1999/xlink"><path d="M434.176 797.184c20.992 33.792 58.368 56.32 100.864 56.32 65.024 0 118.272-53.248 118.272-118.784 0-54.784-37.376-101.376-87.552-114.688l-33.792-268.8c33.28-18.944 55.808-53.76 56.32-94.208l194.56-71.168c19.456 43.52 62.464 73.216 112.64 73.216 68.096 0 123.904-55.808 123.904-124.416S963.584 10.24 895.488 10.24c-66.048 0-119.808 52.224-123.392 117.248l-197.632 72.704C555.008 166.4 519.168 143.36 477.696 143.36c-60.928 0-110.592 49.664-110.592 111.104 0 60.416 48.128 109.568 107.52 111.104l31.744 253.44c-51.712 12.8-89.6 59.904-89.6 115.2 0 2.048 0 4.096 0.512 6.656l-211.456 75.776c-21.504-23.04-51.712-37.376-84.992-37.376-64 0-116.224 52.224-116.224 117.248 0 64.512 52.224 117.248 116.224 117.248s116.224-52.224 116.224-117.248c0-9.728-1.024-18.944-3.072-27.648l200.192-71.68z m461.312-728.576c35.84 0 65.024 29.696 65.024 66.048s-29.184 66.048-65.024 66.048-65.024-29.696-65.024-66.048 29.184-66.048 65.024-66.048zM425.984 254.976c0-29.184 23.552-52.736 52.224-52.736s52.224 23.552 52.224 52.736S506.88 307.712 478.208 307.712s-52.224-24.064-52.224-52.736z m108.544 419.84c32.768 0 59.904 27.136 59.904 60.416s-26.624 60.416-59.904 60.416c-33.28 0-59.904-27.136-59.904-60.416s27.136-60.416 59.904-60.416z m-413.696 280.576c-31.744 0-57.856-26.112-57.856-58.368 0-32.256 25.6-58.368 57.856-58.368s57.856 26.112 57.856 58.368c-0.512 31.744-26.112 58.368-57.856 58.368z" fill="#3ceee7" p-id="7089"></path></svg>